<?xml version="1.0" encoding="UTF-8"?>
<svg width="245px" height="32px" viewBox="0 0 245 32" version="1.1" xmlns="http://www.w3.org/2000/svg" xmlns:xlink="http://www.w3.org/1999/xlink">
    <!-- Generator: Sketch 52.5 (67469) - http://www.bohemiancoding.com/sketch -->
    <title>Group 19</title>
    <desc>Created with Sketch.</desc>
    <g id="Page-1" stroke="none" stroke-width="1" fill="none" fill-rule="evenodd">
        <g id="Desktop-HD-Copy" transform="translate(-55.000000, -41.000000)" fill="#E52F2B">
            <g id="Group-19" transform="translate(55.000000, 41.000000)">
                <polygon id="Fill-1" points="16.119007 1.99771429 8.51646279 14.152 8.51646279 1.99771429 0.571806977 1.99771429 0.571806977 30.8057143 8.51646279 30.8057143 8.51646279 18.0891429 16.7826349 30.8057143 26.1958535 30.8057143 16.0989837 15.96 25.3308488 1.99771429"></polygon>
                <g id="Group-18" transform="translate(24.600000, 0.100457)">
                    <path d="M9.32889209,23.1718857 C10.2207851,24.0958857 11.37012,24.5581714 12.7780409,24.5581714 C14.1859619,24.5581714 15.3393014,24.0958857 16.2374874,23.1718857 C17.1356735,22.2478857 17.5853386,21.0558857 17.5853386,19.5958857 C17.5853386,18.1358857 17.132813,16.9444571 16.2277619,16.0198857 C15.3227107,15.0958857 14.1728037,14.6341714 12.7780409,14.6341714 C11.37012,14.6341714 10.2207851,15.0958857 9.32889209,16.0198857 C8.43699907,16.9444571 7.9913386,18.1358857 7.9913386,19.5958857 C7.9913386,21.0558857 8.43699907,22.2478857 9.32889209,23.1718857 M12.7780409,31.4284571 C10.3912688,31.4284571 8.24592,30.9227429 6.34199442,29.9118857 C4.43806884,28.9004571 2.95634791,27.4941714 1.89740372,25.6930286 C0.837887442,23.8918857 0.308129302,21.8593143 0.308129302,19.5958857 C0.308129302,16.1541714 1.47805953,13.3216 3.81792,11.0981714 C6.15778047,8.87474286 9.14467814,7.76331429 12.7780409,7.76331429 C15.1516549,7.76331429 17.2901386,8.2656 19.1940642,9.27017143 C21.0979898,10.2747429 22.5860037,11.6810286 23.6592502,13.4890286 C24.7319247,15.2970286 25.2679758,17.3324571 25.2679758,19.5958857 C25.2679758,21.8593143 24.7319247,23.8918857 23.6592502,25.6930286 C22.5860037,27.4941714 21.0979898,28.9004571 19.1940642,29.9118857 C17.2901386,30.9227429 15.1516549,31.4284571 12.7780409,31.4284571" id="Fill-2"></path>
                    <path d="M54.9745353,7.82365714 C57.3475772,7.82365714 59.2618005,8.65737143 60.716633,10.3248 C62.1714656,11.9922286 62.8991679,14.1385143 62.8991679,16.7636571 L62.8991679,30.7053714 L55.2359819,30.7053714 L55.2359819,17.7076571 C55.2359819,15.4173714 54.4115958,14.2722286 52.7622516,14.2722286 C50.6432191,14.2722286 49.5842749,15.6922286 49.5842749,18.5310857 L49.5842749,30.7053714 L42.1224656,30.7053714 L42.1224656,17.7076571 C42.1224656,15.4173714 41.3043726,14.2722286 39.6687586,14.2722286 C38.6361307,14.2722286 37.8414935,14.6373714 37.2854191,15.3670857 C36.7287726,16.0973714 36.4507353,17.1516571 36.4507353,18.5310857 L36.4507353,30.7053714 L28.7881214,30.7053714 L28.7881214,8.48651429 L34.1778098,8.48651429 L35.2642144,10.8773714 C36.0817353,9.92651429 37.0542935,9.17965714 38.1807447,8.63737143 C39.3066237,8.09508571 40.5000098,7.82365714 41.7603307,7.82365714 C43.1013167,7.82365714 44.3250237,8.11165714 45.4308795,8.68765714 C46.5373074,9.26365714 47.438926,10.0670857 48.1363074,11.0979429 C48.9406702,10.0802286 49.9395447,9.28022857 51.1329307,8.69737143 C52.3263167,8.11508571 53.6066609,7.82365714 54.9745353,7.82365714" id="Fill-4"></path>
                    <path d="M93.6511702,7.82365714 C96.0242121,7.82365714 97.9384353,8.65737143 99.3932679,10.3248 C100.8481,11.9922286 101.575803,14.1385143 101.575803,16.7636571 L101.575803,30.7053714 L93.9126167,30.7053714 L93.9126167,17.7076571 C93.9126167,15.4173714 93.0882307,14.2722286 91.4388865,14.2722286 C89.319854,14.2722286 88.2609098,15.6922286 88.2609098,18.5310857 L88.2609098,30.7053714 L80.7991005,30.7053714 L80.7991005,17.7076571 C80.7991005,15.4173714 79.9810074,14.2722286 78.3453935,14.2722286 C77.3127656,14.2722286 76.5181284,14.6373714 75.962054,15.3670857 C75.4054074,16.0973714 75.1273702,17.1516571 75.1273702,18.5310857 L75.1273702,30.7053714 L67.4647563,30.7053714 L67.4647563,8.48651429 L72.8544447,8.48651429 L73.9408493,10.8773714 C74.7583702,9.92651429 75.7309284,9.17965714 76.8573795,8.63737143 C77.9832586,8.09508571 79.1766447,7.82365714 80.4369656,7.82365714 C81.7779516,7.82365714 83.0016586,8.11165714 84.1075144,8.68765714 C85.2139423,9.26365714 86.1155609,10.0670857 86.8129423,11.0979429 C87.6173051,10.0802286 88.6161795,9.28022857 89.8095656,8.69737143 C91.0029516,8.11508571 92.2832958,7.82365714 93.6511702,7.82365714" id="Fill-6"></path>
                    <path d="M116.921512,13.75 C115.808219,13.75 114.872847,14.0414286 114.115967,14.6237143 C113.357944,15.2065714 112.825326,16.0534286 112.516967,17.1654286 L121.507409,17.1654286 C120.823186,14.8882857 119.294553,13.75 116.921512,13.75 M129.049312,19.3951429 C129.049312,20.0917143 129.0024,20.7614286 128.908577,21.4042857 L112.376233,21.4042857 C112.630814,22.6762857 113.146842,23.6408571 113.924888,24.2968571 C114.702363,24.9528571 115.701237,25.2814286 116.921512,25.2814286 C117.819698,25.2814286 118.6212,25.0968571 119.324874,24.7288571 C120.029121,24.3602857 120.568605,23.8482857 120.943898,23.1917143 L128.566465,23.1917143 C127.788991,25.7231429 126.350749,27.7288571 124.252312,29.2088571 C122.153874,30.6888571 119.710465,31.4282857 116.921512,31.4282857 C114.641721,31.4282857 112.58047,30.9162857 110.736614,29.8917143 C108.89333,28.8671429 107.448223,27.4511429 106.402437,25.6425714 C105.356651,23.8345714 104.833758,21.8122857 104.833758,19.5757143 C104.833758,16.174 105.9768,13.3551429 108.262884,11.1185714 C110.548967,8.88142857 113.435177,7.76314286 116.921512,7.76314286 C118.677837,7.76314286 120.313451,8.06485714 121.828926,8.66714286 C123.3444,9.27 124.627605,10.0905714 125.680828,11.1282857 C126.732907,12.1665714 127.557865,13.402 128.154558,14.8345714 C128.750679,16.2677143 129.049312,17.7877143 129.049312,19.3951429" id="Fill-8"></path>
                    <path d="M144.97867,8.38617143 L147.010172,8.38617143 L147.010172,15.3770286 L144.033572,15.3770286 C142.678856,15.3770286 141.700577,15.6953143 141.097019,16.3313143 C140.49346,16.9678857 140.191967,17.9953143 140.191967,19.4153143 L140.191967,30.7056 L132.528781,30.7056 L132.528781,8.48674286 L137.657595,8.48674286 L138.844116,10.9576 C139.621591,10.0604571 140.503758,9.40731429 141.488902,8.99874286 C142.474619,8.59017143 143.637684,8.38617143 144.97867,8.38617143" id="Fill-10"></path>
                    <path d="M158.393793,31.4285714 C155.390305,31.4285714 153.010398,30.7022857 151.254073,29.2491429 C149.497175,27.796 148.605854,25.8502857 148.578966,23.4131429 L155.96011,23.4131429 C155.96011,24.1897143 156.201533,24.7822857 156.68438,25.1908571 C157.166654,25.5994286 157.790235,25.8034286 158.554552,25.8034286 C159.15811,25.8034286 159.670705,25.6531429 160.093482,25.3514286 C160.515687,25.0502857 160.726789,24.6251429 160.726789,24.076 C160.726789,23.5 160.414998,23.0748571 159.791417,22.8 C159.168407,22.5257143 158.205575,22.2811429 156.905207,22.0668571 C156.31538,21.9731429 155.802212,21.8794286 155.366849,21.7857143 C154.930914,21.692 154.414314,21.5548571 153.818193,21.3737143 C153.2215,21.1931429 152.711766,20.9954286 152.289561,20.7811429 C151.867356,20.5668571 151.427989,20.2822857 150.972031,19.9274286 C150.516073,19.5725714 150.144212,19.1777143 149.855877,18.7422857 C149.567542,18.3068571 149.332984,17.7777143 149.152203,17.1548571 C148.970849,16.5325714 148.880459,15.8457143 148.880459,15.096 C148.880459,12.8725714 149.752328,11.0948571 151.494924,9.76228571 C153.238091,8.42971429 155.537905,7.76342857 158.393793,7.76342857 C161.209635,7.76342857 163.472263,8.44971429 165.181677,9.82228571 C166.891663,11.1954286 167.766393,13.0131429 167.80644,15.2765714 L160.6261,15.2765714 C160.6261,14.5805714 160.418431,14.0582857 160.003091,13.7097143 C159.58718,13.3617143 159.017375,13.1874286 158.293105,13.1874286 C157.676389,13.1874286 157.179812,13.3348571 156.805091,13.6297143 C156.429226,13.924 156.24158,14.3257143 156.24158,14.8348571 C156.24158,15.076 156.308514,15.2902857 156.442956,15.4777143 C156.576826,15.6651429 156.741017,15.8194286 156.935528,15.94 C157.13004,16.06 157.404645,16.1708571 157.760487,16.2714286 C158.115184,16.3714286 158.440705,16.452 158.735905,16.512 C159.030533,16.5725714 159.426421,16.6497143 159.922426,16.7434286 C159.975631,16.7565714 160.015677,16.7634286 160.043138,16.7634286 L160.063161,16.7634286 L160.083184,16.7634286 L160.103207,16.7834286 L160.123231,16.7834286 L160.143826,16.7834286 L160.163849,16.7834286 L160.183873,16.7834286 C162.288603,17.1582857 163.8241,17.5737143 164.789793,18.0291429 C167.082742,19.1137143 168.228645,21.0222857 168.228645,23.7542857 C168.228645,26.0714286 167.330459,27.9297143 165.533514,29.3291429 C163.73657,30.7285714 161.357235,31.4285714 158.393793,31.4285714" id="Fill-12"></path>
                    <path d="M185.405051,7.82365714 C187.952581,7.82365714 189.987516,8.68765714 191.509284,10.4150857 C193.031051,12.1430857 193.791935,14.4465143 193.791935,17.3259429 L193.791935,30.7053714 L186.129321,30.7053714 L186.129321,18.2099429 C186.129321,15.6385143 185.163628,14.3528 183.232814,14.3528 C182.066316,14.3528 181.148107,14.7442286 180.477614,15.5276571 C179.806549,16.3116571 179.471874,17.4128 179.471874,18.8328 L179.471874,30.7053714 L171.808688,30.7053714 L171.808688,0.471085714 L179.471874,0.471085714 L179.471874,9.95337143 C181.21447,8.53337143 183.192767,7.82365714 185.405051,7.82365714" id="Fill-14"></path>
                    <path d="M211.792842,7.82365714 C214.380419,7.82365714 216.451967,8.67394286 218.007488,10.3750857 C219.563009,12.0756571 220.340484,14.3390857 220.340484,17.1653714 L220.340484,30.7053714 L212.67787,30.7053714 L212.67787,18.2099429 C212.67787,15.6385143 211.712177,14.3528 209.781363,14.3528 C208.587977,14.3528 207.662902,14.7442286 207.00614,15.5276571 C206.348805,16.3116571 206.020423,17.4128 206.020423,18.8328 L206.020423,30.7053714 L198.357809,30.7053714 L198.357809,8.48651429 L203.727474,8.48651429 L204.77326,10.7768 C205.605084,9.83908571 206.626842,9.1128 207.840823,8.59737143 C209.054233,8.08137143 210.371763,7.82365714 211.792842,7.82365714" id="Fill-16"></path>
                </g>
            </g>
        </g>
    </g>
</svg>